<svg width="38" height="37" viewBox="0 0 38 37" fill="none" xmlns="http://www.w3.org/2000/svg">
<g id="bi:instagram" clip-path="url(#clip0_6_121)">
<path id="Vector" d="M18.9998 0.333252C14.0246 0.333252 13.399 0.356169 11.4442 0.443252C9.48942 0.534919 8.15796 0.842002 6.9915 1.29575C5.76797 1.75596 4.65971 2.47785 3.74421 3.41096C2.81168 4.32693 2.08987 5.43505 1.629 6.65825C1.17525 7.82242 0.865879 9.15617 0.776504 11.1041C0.689421 13.0635 0.666504 13.6868 0.666504 18.6689C0.666504 23.6464 0.689421 24.2697 0.776504 26.2245C0.868171 28.177 1.17525 29.5085 1.629 30.6749C2.0988 31.8803 2.72442 32.9024 3.74421 33.9222C4.76171 34.942 5.7838 35.5699 6.98921 36.0374C8.15796 36.4912 9.48713 36.8005 11.4396 36.8899C13.3967 36.977 14.02 36.9999 18.9998 36.9999C23.9796 36.9999 24.6007 36.977 26.5578 36.8899C28.508 36.7983 29.844 36.4912 31.0105 36.0374C32.2332 35.577 33.3407 34.8551 34.2555 33.9222C35.2753 32.9024 35.9009 31.8803 36.3707 30.6749C36.8221 29.5085 37.1315 28.177 37.2232 26.2245C37.3103 24.2697 37.3332 23.6464 37.3332 18.6666C37.3332 13.6868 37.3103 13.0635 37.2232 11.1064C37.1315 9.15617 36.8221 7.82242 36.3707 6.65825C35.9099 5.43502 35.1881 4.32688 34.2555 3.41096C33.3402 2.47751 32.2319 1.75556 31.0082 1.29575C29.8394 0.842002 28.5057 0.532627 26.5555 0.443252C24.5984 0.356169 23.9773 0.333252 18.9953 0.333252H19.0021H18.9998ZM17.3567 3.63784H19.0021C23.8971 3.63784 24.4769 3.65388 26.4088 3.74325C28.1963 3.82346 29.168 4.12367 29.8142 4.37346C30.669 4.70575 31.2809 5.1045 31.9225 5.74617C32.5642 6.38784 32.9607 6.99742 33.293 7.8545C33.545 8.49846 33.843 9.47013 33.9232 11.2576C34.0125 13.1895 34.0309 13.7693 34.0309 18.662C34.0309 23.5547 34.0125 24.1368 33.9232 26.0687C33.843 27.8562 33.5428 28.8255 33.293 29.4718C32.999 30.2678 32.5299 30.9876 31.9203 31.5778C31.2786 32.2195 30.669 32.616 29.8119 32.9483C29.1703 33.2003 28.1986 33.4983 26.4088 33.5808C24.4769 33.6678 23.8971 33.6885 19.0021 33.6885C14.1071 33.6885 13.525 33.6678 11.5932 33.5808C9.80567 33.4983 8.8363 33.2003 8.19005 32.9483C7.39369 32.6547 6.67325 32.1865 6.08171 31.5778C5.47156 30.9867 5.0017 30.2662 4.70671 29.4695C4.45692 28.8255 4.15671 27.8539 4.0765 26.0664C3.98942 24.1345 3.97109 23.5547 3.97109 18.6574C3.97109 13.7624 3.98942 13.1849 4.0765 11.253C4.159 9.46554 4.45692 8.49388 4.709 7.84763C5.0413 6.99284 5.44005 6.38096 6.08171 5.73929C6.72338 5.09763 7.33296 4.70117 8.19005 4.36888C8.8363 4.11679 9.80567 3.81888 11.5932 3.73638C13.2844 3.65846 13.9398 3.63554 17.3567 3.63325V3.63784ZM28.7875 6.68117C28.4986 6.68117 28.2126 6.73807 27.9456 6.84863C27.6787 6.95919 27.4362 7.12124 27.2319 7.32553C27.0276 7.52982 26.8656 7.77235 26.755 8.03927C26.6444 8.30618 26.5875 8.59226 26.5875 8.88117C26.5875 9.17008 26.6444 9.45616 26.755 9.72307C26.8656 9.98999 27.0276 10.2325 27.2319 10.4368C27.4362 10.6411 27.6787 10.8031 27.9456 10.9137C28.2126 11.0243 28.4986 11.0812 28.7875 11.0812C29.371 11.0812 29.9306 10.8494 30.3432 10.4368C30.7558 10.0242 30.9875 9.46465 30.9875 8.88117C30.9875 8.29769 30.7558 7.73811 30.3432 7.32553C29.9306 6.91295 29.371 6.68117 28.7875 6.68117ZM19.0021 9.25242C17.7533 9.23294 16.5131 9.46207 15.3537 9.92649C14.1944 10.3909 13.1389 11.0813 12.2489 11.9576C11.3589 12.8338 10.6521 13.8783 10.1697 15.0303C9.68723 16.1823 9.43878 17.4188 9.43878 18.6677C9.43878 19.9167 9.68723 21.1532 10.1697 22.3052C10.6521 23.4572 11.3589 24.5017 12.2489 25.3779C13.1389 26.2541 14.1944 26.9446 15.3537 27.409C16.5131 27.8734 17.7533 28.1025 19.0021 28.083C21.4738 28.0445 23.8312 27.0356 25.5654 25.274C27.2997 23.5125 28.2717 21.1397 28.2717 18.6677C28.2717 16.1958 27.2997 13.8229 25.5654 12.0614C23.8312 10.2999 21.4738 9.29098 19.0021 9.25242ZM19.0021 12.5547C20.6231 12.5547 22.1777 13.1986 23.3239 14.3448C24.4701 15.491 25.114 17.0456 25.114 18.6666C25.114 20.2876 24.4701 21.8421 23.3239 22.9883C22.1777 24.1345 20.6231 24.7785 19.0021 24.7785C17.3812 24.7785 15.8266 24.1345 14.6804 22.9883C13.5342 21.8421 12.8903 20.2876 12.8903 18.6666C12.8903 17.0456 13.5342 15.491 14.6804 14.3448C15.8266 13.1986 17.3812 12.5547 19.0021 12.5547Z" fill="black"/>
</g>
<defs>
<clipPath id="clip0_6_121">
<rect width="36.6667" height="36.6667" fill="white" transform="translate(0.666504 0.333252)"/>
</clipPath>
</defs>
</svg>
